<mxfile host="app.diagrams.net" modified="2024-03-13T08:32:39.732Z" agent="Mozilla/5.0 (Macintosh; Intel Mac OS X 10_15_7) AppleWebKit/537.36 (KHTML, like Gecko) Chrome/122.0.0.0 Safari/537.36" version="24.0.5" etag="f70IBBAx7-LwsvqouiGB" type="github">
  <diagram name="페이지-1" id="2Mszr9aF8YWygViS3GCA">
    <mxGraphModel>
      <root>
        <mxCell id="0" />
        <mxCell id="1" parent="0" />
      </root>
    </mxGraphModel>
  </diagram>
</mxfile>
